<?xml version="1.0" encoding="iso-8859-1"?>
<!-- Generator: Adobe Illustrator 19.0.0, SVG Export Plug-In . SVG Version: 6.00 Build 0)  -->
<svg version="1.1" id="Capa_1" xmlns="http://www.w3.org/2000/svg" xmlns:xlink="http://www.w3.org/1999/xlink" x="0px" y="0px"
	 viewBox="0 0 512.134 512.134" style="enable-background:new 0 0 512.134 512.134;" xml:space="preserve">
<rect x="333.082" y="340.365" transform="matrix(-0.7093 0.7049 -0.7049 -0.7093 883.2926 368.7331)" style="fill:#334A5E;" width="65.066" height="52.266"/>
<path style="fill:#40596B;" d="M359.334,61.734c-82.133-82.133-214.4-82.133-296.533-1.067s-82.133,214.4-1.067,296.533
	s214.4,82.133,296.533,1.067S440.401,143.867,359.334,61.734z"/>
<path style="fill:#F2F2F2;" d="M93.734,325.201c-64-64-64-168.533,1.067-232.533c64-64,168.533-64,232.533,1.067
	c64,64,64,168.533-1.067,232.533C262.267,390.267,157.734,390.267,93.734,325.201z"/>
<path style="fill:#54C0EB;" d="M309.201,309.201c-54.4,53.333-144,53.333-197.333-1.067c-54.4-54.4-54.4-142.933,1.067-197.333
	s141.867-54.4,196.267,0C363.601,166.267,363.601,254.801,309.201,309.201z"/>
<path style="fill:#40596B;" d="M275.067,275.067c-35.2,35.2-92.8,35.2-129.067,0c-35.2-35.2-35.2-92.8,0-129.067
	c35.2-35.2,92.8-35.2,129.067,0C311.334,182.267,311.334,239.867,275.067,275.067z"/>
<path style="fill:#FF7058;" d="M492.667,405.201l-66.133-66.133c-4.267-4.267-10.667-4.267-14.933,0l-73.6,73.6
	c-4.267,4.267-4.267,10.667,0,14.933l66.133,66.133c24.533,24.533,64,24.533,88.533,0
	C517.201,469.201,517.201,429.734,492.667,405.201z"/>
<g>
	<circle style="fill:#FFFFFF;" cx="168.401" cy="149.201" r="28.8"/>
	<circle style="fill:#FFFFFF;" cx="206.801" cy="186.534" r="17.067"/>
</g>
<g>
</g>
<g>
</g>
<g>
</g>
<g>
</g>
<g>
</g>
<g>
</g>
<g>
</g>
<g>
</g>
<g>
</g>
<g>
</g>
<g>
</g>
<g>
</g>
<g>
</g>
<g>
</g>
<g>
</g>
</svg>
