<svg id="Layer_1" enable-background="new 0 0 512 512" height="512" viewBox="0 0 512 512" width="512" xmlns="http://www.w3.org/2000/svg"><g><path d="m20.574 22.553h477.957v489.447h-477.957z" fill="#fff4f4"/><path d="m256 22.553h242.532v489.447h-242.532z" fill="#f6efea"/><path d="m301 239.5c0-24.813-20.187-45-45-45s-45 20.187-45 45c0 19.555 12.541 36.228 30 42.42v20.58c0 8.284 6.716 15 15 15s15-6.716 15-15v-20.58c17.459-6.192 30-22.865 30-42.42zm-45 15c-8.271 0-15-6.729-15-15s6.729-15 15-15 15 6.729 15 15-6.729 15-15 15z" fill="#fdbf00"/><g fill="#007a9f"><path d="m497 0h-482c-8.284 0-15 6.716-15 15v482c0 8.284 6.716 15 15 15h336c8.284 0 15-6.716 15-15s-6.716-15-15-15h-171.641v-38h242.141c8.284 0 15-6.716 15-15v-113c0-8.284-6.716-15-15-15s-15 6.716-15 15v98h-166.5v-53c0-8.284-6.716-15-15-15-.506 0-44 0-44 0v-180h150v180h-43c-8.284 0-15 6.716-15 15s6.716 15 15 15h58c8.284 0 15-6.716 15-15v-210c0-8.284-6.716-15-15-15h-22.001v-38h82.501v141c0 8.284 6.716 15 15 15s15-6.716 15-15v-156c0-8.284-6.716-15-15-15h-112.5s0 0 0 0c-8.284 0-15 6.716-15 15v53h-128c-8.284 0-15 6.716-15 15v210c0 8.284 6.716 15 15 15h44v38h-104.5v-161c0-8.284-6.716-15-15-15s-15 6.716-15 15v47.745s-44.531.104-45.5.301v-271.046h452v452h-41c-8.284 0-15 6.716-15 15s6.716 15 15 15h56c8.284 0 15-6.716 15-15v-482c0-8.284-6.716-15-15-15zm-421.5 330.745v98.255c0 8.284 6.716 15 15 15h58.859v38h-119.359v-151.556c.969.197 45.5.301 45.5.301z"/><path d="m90.5 68c-8.284 0-15 6.716-15 15v93c0 8.284 6.716 15 15 15s15-6.716 15-15v-78h127.5c8.284 0 15-6.716 15-15s-6.716-15-15-15z"/></g><path d="m256 194.5v30c8.271 0 15 6.729 15 15s-6.729 15-15 15v63c8.284 0 15-6.716 15-15v-20.58c17.459-6.192 30-22.865 30-42.42 0-24.813-20.187-45-45-45z" fill="#ff8856"/><g fill="#00607f"><path d="m421.5 254c8.284 0 15-6.716 15-15v-156c0-8.284-6.716-15-15-15h-112.5s0 0 0 0c-8.284 0-15 6.716-15 15v53h-38v30h75v180h-43c-8.284 0-15 6.716-15 15s6.716 15 15 15h58c8.284 0 15-6.716 15-15v-210c0-8.284-6.716-15-15-15h-22.001v-38h82.501v141c0 8.284 6.716 15 15 15z"/><path d="m351 482h-95v30h95c8.284 0 15-6.716 15-15s-6.716-15-15-15z"/><path d="m497 0h-241v30h226v452h-41c-8.284 0-15 6.716-15 15s6.716 15 15 15h56c8.284 0 15-6.716 15-15v-482c0-8.284-6.716-15-15-15z"/><path d="m436.5 429v-113c0-8.284-6.716-15-15-15s-15 6.716-15 15v98h-150.5v30h165.5c8.284 0 15-6.716 15-15z"/></g></g></svg>