<svg id="Capa_1" enable-background="new 0 0 512 512" height="512" viewBox="0 0 512 512" width="512" xmlns="http://www.w3.org/2000/svg"><g><path d="m394.21 348.325h-8.064l-22.664-93.939h8.996l-14.636-63.265h-5.349l-27.472-93.806h11.119l-17.344-74.971c-3.025-13.081-14.676-22.344-28.102-22.344h-69.388c-13.426 0-25.077 9.263-28.103 22.344l-17.344 74.971h6.998l-21.977 93.806h-6.722l-14.636 63.265h11.056l-25.411 93.806h-7.347l-22.513 97.314v33.246h321.385v-33.246z" fill="#fe9901"/><path d="m394.21 348.325h-8.064l-22.664-93.939h8.996l-14.636-63.265h-5.349l-27.472-93.806h11.119l-17.344-74.971c-3.025-13.081-14.676-22.344-28.102-22.344h-40.883c13.426 0 25.077 9.263 28.103 22.344l97.896 423.163h-280.503v33.246h321.385v-33.246z" fill="#fb8801"/><path d="m444.398 512h-376.796c-18.362 0-33.247-14.885-33.247-33.247 0-18.362 14.885-33.247 33.247-33.247h376.797c18.362 0 33.247 14.885 33.247 33.247-.001 18.362-14.886 33.247-33.248 33.247z" fill="#fdb441"/><path d="m117.82 348.192h276.36l-21.702-93.806h-232.956z" fill="#ffefd2"/><path d="m154.158 191.121h203.684l-21.701-93.807h-160.282z" fill="#ffefd2"/><path d="m353.297 348.192h40.883l-21.702-93.806h-40.883z" fill="#fee8c7"/><path d="m316.959 191.121h40.883l-21.701-93.807h-40.883z" fill="#fee8c7"/><path d="m444.398 445.507h-40.883c18.362 0 33.247 14.885 33.247 33.246 0 18.361-14.885 33.246-33.247 33.246h40.883c18.362 0 33.247-14.885 33.247-33.246 0-18.362-14.885-33.246-33.247-33.246z" fill="#fea613"/></g></svg>